HIERARCHY
ROOT Hips
{
	OFFSET	0.00	0.00	0.00
	CHANNELS 6 Xposition Yposition Zposition Zrotation Xrotation Yrotation
	JOINT Spine
	{
		OFFSET	 0.000000	 0.053172	 0.012782
		CHANNELS 3 Zrotation Xrotation Yrotation
		JOINT Chest
		{
			OFFSET	 0.000000	 0.115403	 0.003114
			CHANNELS 3 Zrotation Xrotation Yrotation
			JOINT UpperChest
			{
				OFFSET	-0.000000	 0.109921	-0.014956
				CHANNELS 3 Zrotation Xrotation Yrotation
				JOINT Neck
				{
					OFFSET	-0.000000	 0.135086	-0.039168
					CHANNELS 3 Zrotation Xrotation Yrotation
					JOINT Head
					{
						OFFSET	 0.000000	 0.074065	 0.009278
						CHANNELS 3 Zrotation Xrotation Yrotation
						JOINT LeftEye
						{
							OFFSET	 0.013099	 0.061527	 0.024023
							CHANNELS 3 Zrotation Xrotation Yrotation
							End Site
							{
								OFFSET	 0.013099	 0.061527	 0.024023
							}
						}
						JOINT RightEye
						{
							OFFSET	-0.013099	 0.061528	 0.024023
							CHANNELS 3 Zrotation Xrotation Yrotation
							End Site
							{
								OFFSET	-0.013099	 0.061528	 0.024023
							}
						}
					}
				}
				JOINT LeftShoulder
				{
					OFFSET	 0.022837	 0.107922	-0.030603
					CHANNELS 3 Zrotation Xrotation Yrotation
					JOINT LeftUpperArm
					{
						OFFSET	 0.086642	-0.012346	-0.000000
						CHANNELS 3 Zrotation Xrotation Yrotation
						JOINT LeftLowerArm
						{
							OFFSET	 0.224390	 0.000000	-0.000000
							CHANNELS 3 Zrotation Xrotation Yrotation
							JOINT LeftHand
							{
								OFFSET	 0.217424	 0.000002	 0.000381
								CHANNELS 3 Zrotation Xrotation Yrotation
								JOINT LeftIndexProximal
								{
									OFFSET	 0.066067	 0.007457	 0.019860
									CHANNELS 3 Zrotation Xrotation Yrotation
									JOINT LeftIndexIntermediate
									{
										OFFSET	 0.033559	-0.000000	-0.000653
										CHANNELS 3 Zrotation Xrotation Yrotation
										JOINT LeftIndexDistal
										{
											OFFSET	 0.020642	-0.000597	-0.000797
											CHANNELS 3 Zrotation Xrotation Yrotation
											End Site
											{
												OFFSET	 0.020642	-0.000597	-0.000797
											}
										}
									}
								}
								JOINT LeftLittleProximal
								{
									OFFSET	 0.061646	 0.007457	-0.029477
									CHANNELS 3 Zrotation Xrotation Yrotation
									JOINT LeftLittleIntermediate
									{
										OFFSET	 0.031724	 0.000000	 0.000000
										CHANNELS 3 Zrotation Xrotation Yrotation
										JOINT LeftLittleDistal
										{
											OFFSET	 0.018284	 0.000000	 0.000000
											CHANNELS 3 Zrotation Xrotation Yrotation
											End Site
											{
												OFFSET	 0.018284	 0.000000	 0.000000
											}
										}
									}
								}
								JOINT LeftMiddleProximal
								{
									OFFSET	 0.066967	 0.007457	 0.002068
									CHANNELS 3 Zrotation Xrotation Yrotation
									JOINT LeftMiddleIntermediate
									{
										OFFSET	 0.037388	 0.000000	-0.000000
										CHANNELS 3 Zrotation Xrotation Yrotation
										JOINT LeftMiddleDistal
										{
											OFFSET	 0.023065	 0.000000	 0.000000
											CHANNELS 3 Zrotation Xrotation Yrotation
											End Site
											{
												OFFSET	 0.023065	 0.000000	 0.000000
											}
										}
									}
								}
								JOINT LeftRingProximal
								{
									OFFSET	 0.066205	 0.007457	-0.013729
									CHANNELS 3 Zrotation Xrotation Yrotation
									JOINT LeftRingIntermediate
									{
										OFFSET	 0.034682	 0.000000	-0.000000
										CHANNELS 3 Zrotation Xrotation Yrotation
										JOINT LeftRingDistal
										{
											OFFSET	 0.020015	 0.000000	 0.000000
											CHANNELS 3 Zrotation Xrotation Yrotation
											End Site
											{
												OFFSET	 0.020015	 0.000000	 0.000000
											}
										}
									}
								}
								JOINT LeftThumbProximal
								{
									OFFSET	 0.003555	-0.010112	 0.016128
									CHANNELS 3 Zrotation Xrotation Yrotation
									JOINT LeftThumbIntermediate
									{
										OFFSET	 0.035690	-0.002084	 0.030575
										CHANNELS 3 Zrotation Xrotation Yrotation
										JOINT LeftThumbDistal
										{
											OFFSET	 0.022765	-0.000980	 0.017832
											CHANNELS 3 Zrotation Xrotation Yrotation
											End Site
											{
												OFFSET	 0.022765	-0.000980	 0.017832
											}
										}
									}
								}
							}
						}
					}
				}
				JOINT RightShoulder
				{
					OFFSET	-0.022837	 0.107922	-0.030603
					CHANNELS 3 Zrotation Xrotation Yrotation
					JOINT RightUpperArm
					{
						OFFSET	-0.086642	-0.012346	 0.000000
						CHANNELS 3 Zrotation Xrotation Yrotation
						JOINT RightLowerArm
						{
							OFFSET	-0.224390	 0.000000	 0.000000
							CHANNELS 3 Zrotation Xrotation Yrotation
							JOINT RightHand
							{
								OFFSET	-0.217424	 0.000002	 0.000381
								CHANNELS 3 Zrotation Xrotation Yrotation
								JOINT RightIndexProximal
								{
									OFFSET	-0.066067	 0.007457	 0.019860
									CHANNELS 3 Zrotation Xrotation Yrotation
									JOINT RightIndexIntermediate
									{
										OFFSET	-0.033559	-0.000000	-0.000653
										CHANNELS 3 Zrotation Xrotation Yrotation
										JOINT RightIndexDistal
										{
											OFFSET	-0.020642	-0.000597	-0.000797
											CHANNELS 3 Zrotation Xrotation Yrotation
											End Site
											{
												OFFSET	-0.020642	-0.000597	-0.000797
											}
										}
									}
								}
								JOINT RightLittleProximal
								{
									OFFSET	-0.061646	 0.007457	-0.029477
									CHANNELS 3 Zrotation Xrotation Yrotation
									JOINT RightLittleIntermediate
									{
										OFFSET	-0.031724	 0.000000	 0.000000
										CHANNELS 3 Zrotation Xrotation Yrotation
										JOINT RightLittleDistal
										{
											OFFSET	-0.018284	 0.000000	 0.000000
											CHANNELS 3 Zrotation Xrotation Yrotation
											End Site
											{
												OFFSET	-0.018284	 0.000000	 0.000000
											}
										}
									}
								}
								JOINT RightMiddleProximal
								{
									OFFSET	-0.066967	 0.007457	 0.002068
									CHANNELS 3 Zrotation Xrotation Yrotation
									JOINT RightMiddleIntermediate
									{
										OFFSET	-0.037388	 0.000000	 0.000000
										CHANNELS 3 Zrotation Xrotation Yrotation
										JOINT RightMiddleDistal
										{
											OFFSET	-0.023065	 0.000000	 0.000000
											CHANNELS 3 Zrotation Xrotation Yrotation
											End Site
											{
												OFFSET	-0.023065	 0.000000	 0.000000
											}
										}
									}
								}
								JOINT RightRingProximal
								{
									OFFSET	-0.066205	 0.007457	-0.013729
									CHANNELS 3 Zrotation Xrotation Yrotation
									JOINT RightRingIntermediate
									{
										OFFSET	-0.034682	 0.000000	 0.000000
										CHANNELS 3 Zrotation Xrotation Yrotation
										JOINT RightRingDistal
										{
											OFFSET	-0.020015	 0.000000	 0.000000
											CHANNELS 3 Zrotation Xrotation Yrotation
											End Site
											{
												OFFSET	-0.020015	 0.000000	 0.000000
											}
										}
									}
								}
								JOINT RightThumbProximal
								{
									OFFSET	-0.003555	-0.010112	 0.016128
									CHANNELS 3 Zrotation Xrotation Yrotation
									JOINT RightThumbIntermediate
									{
										OFFSET	-0.035690	-0.002084	 0.030575
										CHANNELS 3 Zrotation Xrotation Yrotation
										JOINT RightThumbDistal
										{
											OFFSET	-0.022765	-0.000980	 0.017832
											CHANNELS 3 Zrotation Xrotation Yrotation
											End Site
											{
												OFFSET	-0.022765	-0.000980	 0.017832
											}
										}
									}
								}
							}
						}
					}
				}
			}
		}
	}
	JOINT LeftUpperLeg
	{
		OFFSET	 0.078678	-0.040616	-0.003734
		CHANNELS 3 Zrotation Xrotation Yrotation
		JOINT LeftLowerLeg
		{
			OFFSET	 0.000000	-0.358659	-0.007506
			CHANNELS 3 Zrotation Xrotation Yrotation
			JOINT LeftFoot
			{
				OFFSET	 0.000000	-0.418700	-0.025144
				CHANNELS 3 Zrotation Xrotation Yrotation
				JOINT LeftToes
				{
					OFFSET	 0.000000	-0.063430	 0.111347
					CHANNELS 3 Zrotation Xrotation Yrotation
					End Site
					{
						OFFSET	 0.000000	-0.063430	 0.111347
					}
				}
			}
		}
	}
	JOINT RightUpperLeg
	{
		OFFSET	-0.078678	-0.040616	-0.003734
		CHANNELS 3 Zrotation Xrotation Yrotation
		JOINT RightLowerLeg
		{
			OFFSET	 0.000000	-0.358659	-0.007506
			CHANNELS 3 Zrotation Xrotation Yrotation
			JOINT RightFoot
			{
				OFFSET	 0.000000	-0.418700	-0.025144
				CHANNELS 3 Zrotation Xrotation Yrotation
				JOINT RightToes
				{
					OFFSET	 0.000000	-0.063430	 0.111347
					CHANNELS 3 Zrotation Xrotation Yrotation
					End Site
					{
						OFFSET	 0.000000	-0.063430	 0.111347
					}
				}
			}
		}
	}
}
MOTION
Frames:    5
Frame Time: 0.03333334
 0.021896	 0.936744	 0.023665	 1.649758	 6.225850	-5.808908	-0.717822	 0.715843	-1.842302	-0.589984	 11.006610	 0.030377	 0.000000	 0.000000	 0.000000	-3.956480	-13.402340	-0.898137	 1.648867	 2.670194	 7.748357	 0.000000	 0.000000	 0.000000	 0.000000	 0.000000	 0.000000	 5.966874	-16.067740	 11.899750	-68.136710	 41.119430	-20.949260	-19.923210	-2.195345	-97.110140	 0.649596	 15.501090	-3.826134	 0.000000	 0.000000	 0.000000	 0.000000	 0.000000	 0.000000	 0.000000	 0.000000	 0.000000	 0.000000	 0.000000	 0.000000	 0.000000	 0.000000	 0.000000	 0.000000	 0.000000	 0.000000	 0.000000	 0.000000	 0.000000	 0.000000	 0.000000	 0.000000	 0.000000	 0.000000	 0.000000	 0.000000	 0.000000	 0.000000	 0.000000	 0.000000	 0.000000	 0.000000	 0.000000	 0.000000	 0.000000	 0.000000	 0.000000	 0.000000	 0.000000	 0.000000	 0.000000	 0.000000	 0.000000	-12.787590	-16.195220	-11.042730	 54.272620	 39.946220	 42.608340	 18.837870	-5.816805	 113.386100	 8.360918	 7.538347	 7.449642	 0.000000	 0.000000	 0.000000	 0.000000	 0.000000	 0.000000	 0.000000	 0.000000	 0.000000	 0.000000	 0.000000	 0.000000	 0.000000	 0.000000	 0.000000	 0.000000	 0.000000	 0.000000	 0.000000	 0.000000	 0.000000	 0.000000	 0.000000	 0.000000	 0.000000	 0.000000	 0.000000	 0.000000	 0.000000	 0.000000	 0.000000	 0.000000	 0.000000	 0.000000	 0.000000	 0.000000	 0.000000	 0.000000	 0.000000	 0.000000	 0.000000	 0.000000	 0.000000	 0.000000	 0.000000	-1.247667	-17.035470	-0.340608	 6.669493	 33.340310	-12.311640	 5.394668	-12.130210	 19.336770	 0.000000	 0.000000	 0.000000	-4.203393	-16.912100	-1.140507	 2.895313	 34.709850	-5.199395	 0.007885	-12.851290	 0.028036	 0.000000	 0.000000	 0.000000
 0.021520	 0.932074	 0.022680	 0.372429	 6.398188	-4.214833	 0.444057	 0.847954	-0.047356	 0.398033	 11.162960	 0.190687	 0.000000	 0.000000	 0.000000	-4.217022	-12.465500	-1.113404	 1.354742	 1.186796	 5.598130	 0.000000	 0.000000	 0.000000	 0.000000	 0.000000	 0.000000	 1.914318	-16.197430	 13.148430	-68.877690	 34.908390	-13.195740	-19.791410	 4.749546	-98.492580	-1.261157	 15.977600	-2.364070	 0.000000	 0.000000	 0.000000	 0.000000	 0.000000	 0.000000	 0.000000	 0.000000	 0.000000	 0.000000	 0.000000	 0.000000	 0.000000	 0.000000	 0.000000	 0.000000	 0.000000	 0.000000	 0.000000	 0.000000	 0.000000	 0.000000	 0.000000	 0.000000	 0.000000	 0.000000	 0.000000	 0.000000	 0.000000	 0.000000	 0.000000	 0.000000	 0.000000	 0.000000	 0.000000	 0.000000	 0.000000	 0.000000	 0.000000	 0.000000	 0.000000	 0.000000	 0.000000	 0.000000	 0.000000	-16.690160	-16.077870	-13.911110	 48.038640	 42.413080	 56.355640	 20.620600	-17.858590	 109.203600	 8.927762	 8.800212	 8.744006	 0.000000	 0.000000	 0.000000	 0.000000	 0.000000	 0.000000	 0.000000	 0.000000	 0.000000	 0.000000	 0.000000	 0.000000	 0.000000	 0.000000	 0.000000	 0.000000	 0.000000	 0.000000	 0.000000	 0.000000	 0.000000	 0.000000	 0.000000	 0.000000	 0.000000	 0.000000	 0.000000	 0.000000	 0.000000	 0.000000	 0.000000	 0.000000	 0.000000	 0.000000	 0.000000	 0.000000	 0.000000	 0.000000	 0.000000	 0.000000	 0.000000	 0.000000	 0.000000	 0.000000	 0.000000	-0.962961	-17.868960	-0.276322	 9.606421	 34.220300	-17.195660	 5.475841	-10.954530	 21.036480	 0.000000	 0.000000	 0.000000	-3.945767	-17.258870	-1.093395	 5.076858	 35.513190	-8.924191	 0.531836	-11.062470	 2.119473	 0.000000	 0.000000	 0.000000
 0.020785	 0.929018	 0.022543	-0.862277	 6.574803	-3.053329	 1.496107	 0.859749	 1.900792	 1.263224	 11.125230	 0.364606	 0.000000	 0.000000	 0.000000	-3.956128	-11.653140	-1.209732	 1.192203	-0.260116	 3.370997	 0.000000	 0.000000	 0.000000	 0.000000	 0.000000	 0.000000	-1.250780	-16.200880	 13.893950	-67.620090	 30.175410	-9.078810	-19.832780	 8.995214	-99.143020	-3.349668	 16.852200	-2.068033	 0.000000	 0.000000	 0.000000	 0.000000	 0.000000	 0.000000	 0.000000	 0.000000	 0.000000	 0.000000	 0.000000	 0.000000	 0.000000	 0.000000	 0.000000	 0.000000	 0.000000	 0.000000	 0.000000	 0.000000	 0.000000	 0.000000	 0.000000	 0.000000	 0.000000	 0.000000	 0.000000	 0.000000	 0.000000	 0.000000	 0.000000	 0.000000	 0.000000	 0.000000	 0.000000	 0.000000	 0.000000	 0.000000	 0.000000	 0.000000	 0.000000	 0.000000	 0.000000	 0.000000	 0.000000	-20.087230	-15.782640	-16.512530	 41.075650	 43.096680	 70.856210	 23.628690	-31.305830	 105.448000	 10.504060	 10.046110	 9.705883	 0.000000	 0.000000	 0.000000	 0.000000	 0.000000	 0.000000	 0.000000	 0.000000	 0.000000	 0.000000	 0.000000	 0.000000	 0.000000	 0.000000	 0.000000	 0.000000	 0.000000	 0.000000	 0.000000	 0.000000	 0.000000	 0.000000	 0.000000	 0.000000	 0.000000	 0.000000	 0.000000	 0.000000	 0.000000	 0.000000	 0.000000	 0.000000	 0.000000	 0.000000	 0.000000	 0.000000	 0.000000	 0.000000	 0.000000	 0.000000	 0.000000	 0.000000	 0.000000	 0.000000	 0.000000	-0.747928	-18.461220	-0.222007	 12.347310	 34.621510	-21.647720	 5.515861	-9.436243	 23.371110	 0.000000	 0.000000	 0.000000	-3.515394	-17.492220	-0.987612	 6.844184	 36.142460	-11.815710	 0.852994	-9.260571	 3.868080	 0.000000	 0.000000	 0.000000
 0.019896	 0.927669	 0.023250	-1.924734	 6.756594	-2.157981	 2.393386	 0.764510	 3.746964	 1.971387	 10.925350	 0.533839	 0.000000	 0.000000	 0.000000	-3.469189	-11.003820	-1.234866	 1.069057	-1.536579	 1.273584	 0.000000	 0.000000	 0.000000	 0.000000	 0.000000	 0.000000	-3.351749	-16.118850	 14.247880	-66.406710	 26.859060	-6.602126	-19.870220	 11.205610	-99.727620	-5.605869	 17.174800	-2.141996	 0.000000	 0.000000	 0.000000	 0.000000	 0.000000	 0.000000	 0.000000	 0.000000	 0.000000	 0.000000	 0.000000	 0.000000	 0.000000	 0.000000	 0.000000	 0.000000	 0.000000	 0.000000	 0.000000	 0.000000	 0.000000	 0.000000	 0.000000	 0.000000	 0.000000	 0.000000	 0.000000	 0.000000	 0.000000	 0.000000	 0.000000	 0.000000	 0.000000	 0.000000	 0.000000	 0.000000	 0.000000	 0.000000	 0.000000	 0.000000	 0.000000	 0.000000	 0.000000	 0.000000	 0.000000	-22.775300	-15.387530	-18.623280	 35.064300	 42.150300	 83.782830	 27.629650	-44.408140	 104.743500	 11.894480	 10.175380	 10.528200	 0.000000	 0.000000	 0.000000	 0.000000	 0.000000	 0.000000	 0.000000	 0.000000	 0.000000	 0.000000	 0.000000	 0.000000	 0.000000	 0.000000	 0.000000	 0.000000	 0.000000	 0.000000	 0.000000	 0.000000	 0.000000	 0.000000	 0.000000	 0.000000	 0.000000	 0.000000	 0.000000	 0.000000	 0.000000	 0.000000	 0.000000	 0.000000	 0.000000	 0.000000	 0.000000	 0.000000	 0.000000	 0.000000	 0.000000	 0.000000	 0.000000	 0.000000	 0.000000	 0.000000	 0.000000	-0.603130	-18.756380	-0.181989	 14.564080	 34.520180	-25.311420	 5.331760	-7.666537	 25.785220	 0.000000	 0.000000	 0.000000	-3.029877	-17.652690	-0.859110	 8.181110	 36.619240	-13.925610	 1.035100	-7.789830	 5.292363	 0.000000	 0.000000	 0.000000
 0.019318	 0.928106	 0.024853	-2.649913	 6.886792	-1.628568	 3.048522	 0.598056	 5.181617	 2.461406	 10.643460	 0.672195	 0.000000	 0.000000	 0.000000	-2.974606	-10.569370	-1.224421	 1.053165	-2.414041	-0.233017	 0.000000	 0.000000	 0.000000	 0.000000	 0.000000	 0.000000	-4.557824	-15.998420	 14.301220	-65.665920	 24.631340	-4.996418	-19.810160	 11.516140	-100.637500	-7.638670	 15.662890	-2.877193	 0.000000	 0.000000	 0.000000	 0.000000	 0.000000	 0.000000	 0.000000	 0.000000	 0.000000	 0.000000	 0.000000	 0.000000	 0.000000	 0.000000	 0.000000	 0.000000	 0.000000	 0.000000	 0.000000	 0.000000	 0.000000	 0.000000	 0.000000	 0.000000	 0.000000	 0.000000	 0.000000	 0.000000	 0.000000	 0.000000	 0.000000	 0.000000	 0.000000	 0.000000	 0.000000	 0.000000	 0.000000	 0.000000	 0.000000	 0.000000	 0.000000	 0.000000	 0.000000	 0.000000	 0.000000	-24.625490	-14.999020	-20.055730	 31.094250	 41.446350	 93.199600	 33.283340	-54.536790	 108.383200	 13.452330	 10.279270	 10.684010	 0.000000	 0.000000	 0.000000	 0.000000	 0.000000	 0.000000	 0.000000	 0.000000	 0.000000	 0.000000	 0.000000	 0.000000	 0.000000	 0.000000	 0.000000	 0.000000	 0.000000	 0.000000	 0.000000	 0.000000	 0.000000	 0.000000	 0.000000	 0.000000	 0.000000	 0.000000	 0.000000	 0.000000	 0.000000	 0.000000	 0.000000	 0.000000	 0.000000	 0.000000	 0.000000	 0.000000	 0.000000	 0.000000	 0.000000	 0.000000	 0.000000	 0.000000	 0.000000	 0.000000	 0.000000	-0.701163	-18.742450	-0.211410	 16.141650	 34.164580	-28.023050	 4.878126	-5.720874	 28.127640	 0.000000	 0.000000	 0.000000	-2.664568	-17.701790	-0.757574	 8.973089	 36.934710	-15.130730	 1.092918	-6.447504	 6.329910	 0.000000	 0.000000	 0.000000
